<svg version="1.1" id="Layer_1" xmlns="http://www.w3.org/2000/svg" xmlns:xlink="http://www.w3.org/1999/xlink" x="0px" y="0px"
	 width="100%" viewBox="0 0 512 512" enable-background="new 0 0 512 512" xml:space="preserve">
<path fill="#000000" opacity="1.000000" stroke="none" 
	d="
M351.000000,513.000000 
	C234.028427,513.000000 117.556847,513.000000 1.042632,513.000000 
	C1.042632,342.403412 1.042632,171.806793 1.042632,1.105087 
	C171.554916,1.105087 342.109924,1.105087 512.832458,1.105087 
	C512.832458,171.666534 512.832458,342.333252 512.832458,513.000000 
	C459.140045,513.000000 405.320038,513.000000 351.000000,513.000000 
M104.015594,245.996552 
	C104.009979,271.820160 103.988037,297.643829 104.040062,323.467316 
	C104.043121,324.987457 104.642326,326.506439 105.240616,328.659149 
	C106.686211,329.719757 108.031288,330.966492 109.593849,331.810577 
	C119.109413,336.950653 128.730072,341.897919 138.208481,347.104614 
	C149.435074,353.271545 160.536087,359.666687 171.731018,365.891907 
	C174.378952,367.364380 177.184586,368.553253 180.594238,370.108917 
	C190.844864,375.981842 201.084503,381.874054 211.350739,387.719543 
	C216.538071,390.673187 221.757858,393.570862 226.990677,396.443390 
	C236.332886,401.571838 245.696091,406.661957 255.730423,411.693085 
	C256.877167,411.100494 258.049927,410.553009 259.166656,409.908386 
	C272.174591,402.399109 285.121796,394.782867 298.192902,387.385406 
	C308.111816,381.771851 318.185638,376.432007 328.860260,370.982819 
	C329.577667,370.663574 330.295105,370.344330 331.657715,369.745270 
	C340.893494,364.463715 350.050720,359.038483 359.384491,353.936279 
	C371.557220,347.282227 383.937958,341.007385 396.079956,334.299255 
	C399.619781,332.343597 402.650391,329.466156 405.989197,326.069916 
	C406.025024,299.739532 406.060852,273.409119 406.727905,246.817307 
	C408.563599,244.906067 410.959717,242.920456 406.013641,240.982758 
	C405.979919,214.986282 405.946228,188.989822 406.018219,162.250153 
	C404.530334,161.432983 403.028656,160.639771 401.556793,159.794678 
	C392.912018,154.831055 384.305725,149.799423 375.624146,144.901199 
	C368.490723,140.876480 361.270935,137.004883 354.088928,133.066376 
	C346.110077,128.690903 338.130646,124.316521 329.786407,119.292763 
	C325.507324,117.017281 321.202179,114.789307 316.953979,112.457535 
	C303.459991,105.050873 290.026062,97.533859 276.490387,90.204483 
	C269.406830,86.368820 262.159058,82.836418 254.263092,79.038620 
	C251.424011,80.581276 248.590256,82.133827 245.744934,83.664871 
	C233.577286,90.212166 221.361328,96.671371 209.250488,103.322029 
	C199.400803,108.731003 189.675568,114.366638 179.192429,120.008110 
	C154.459198,133.724121 129.725952,147.440140 104.183304,161.454315 
	C104.173103,189.328888 104.162903,217.203445 104.015594,245.996552 
z"/>
<path fill="#FF83B0" opacity="1.000000" stroke="none" 
	d="
M406.075378,241.901184 
	C410.959717,242.920456 408.563599,244.906067 406.031677,246.927551 
	C404.231262,247.353699 403.035431,247.493164 402.036469,248.011765 
	C384.386902,257.174164 366.716370,266.298096 349.154572,275.626556 
	C342.898804,278.949493 336.919373,282.792603 330.522644,286.353516 
	C329.850830,286.207001 329.470184,286.105255 329.049866,285.536133 
	C328.983582,258.062805 328.956909,231.056870 329.148010,203.918121 
	C329.577240,203.521896 329.788666,203.258514 330.326721,203.007492 
	C331.084961,203.079285 331.516632,203.138687 332.157837,203.457947 
	C333.630646,204.499802 334.852417,205.360672 336.163727,206.051544 
	C349.081482,212.857437 361.969879,219.721100 374.956543,226.393341 
	C385.264404,231.689255 395.697754,236.741028 406.075378,241.901184 
z"/>
<path fill="#EA637D" opacity="1.000000" stroke="none" 
	d="
M179.895157,119.901764 
	C189.675568,114.366638 199.400803,108.731003 209.250488,103.322029 
	C221.361328,96.671371 233.577286,90.212166 245.744934,83.664871 
	C248.590256,82.133827 251.424011,80.581276 254.627441,79.560760 
	C255.000580,107.462273 255.009338,134.841660 254.853149,162.401306 
	C254.430496,162.787216 254.158722,162.972153 253.558777,162.967529 
	C248.641754,160.242096 244.072037,157.623215 239.425613,155.148346 
	C235.583084,153.101654 231.566589,151.373398 227.774261,149.242310 
	C219.759430,144.738419 211.887451,139.980103 203.869125,135.482651 
	C196.321548,131.249207 188.661224,127.216751 180.910248,122.784103 
	C180.478378,121.615479 180.186768,120.758621 179.895157,119.901764 
z"/>
<path fill="#EA637D" opacity="1.000000" stroke="none" 
	d="
M255.050522,411.768127 
	C245.696091,406.661957 236.332886,401.571838 226.990677,396.443390 
	C221.757858,393.570862 216.538071,390.673187 211.350739,387.719543 
	C201.084503,381.874054 190.844864,375.981842 180.321777,369.685181 
	C180.397049,368.505768 180.744797,367.750092 181.446335,366.990540 
	C184.896652,365.306061 187.979080,363.598816 191.092758,361.950653 
	C196.917252,358.867584 202.830154,355.944366 208.579086,352.727356 
	C218.101639,347.398682 227.472580,341.798645 237.006439,336.490784 
	C242.895401,333.212189 248.967743,330.263062 255.078033,327.397583 
	C255.441315,328.090179 255.684326,328.551239 255.696625,329.352203 
	C255.310425,330.998047 255.019867,332.303864 255.019379,333.609833 
	C255.009689,359.662598 255.033493,385.715363 255.050522,411.768127 
z"/>
<path fill="#6C2B80" opacity="1.000000" stroke="none" 
	d="
M181.092545,366.994415 
	C180.744797,367.750092 180.397049,368.505768 179.983490,369.567017 
	C177.184586,368.553253 174.378952,367.364380 171.731018,365.891907 
	C160.536087,359.666687 149.435074,353.271545 138.208481,347.104614 
	C128.730072,341.897919 119.109413,336.950653 109.593849,331.810577 
	C108.031288,330.966492 106.686211,329.719757 105.310608,328.066650 
	C128.081009,314.932373 150.768982,302.367920 173.500900,289.883484 
	C175.789688,288.626495 178.344391,287.853699 180.855835,287.328644 
	C180.988174,314.198883 181.040359,340.596649 181.092545,366.994415 
z"/>
<path fill="#E84278" opacity="1.000000" stroke="none" 
	d="
M179.543793,119.954941 
	C180.186768,120.758621 180.478378,121.615479 180.888824,123.246849 
	C180.951889,150.359863 180.896133,176.698349 180.676849,203.142426 
	C180.305069,203.404648 180.125992,203.589554 179.653107,203.838638 
	C178.899719,203.919189 178.469299,203.963791 177.952576,203.677109 
	C176.190216,202.041718 174.654205,200.483063 172.816757,199.472382 
	C151.141129,187.549591 129.413132,175.722015 107.733185,163.807022 
	C106.658630,163.216461 105.898987,162.052917 104.992714,161.156158 
	C129.725952,147.440140 154.459198,133.724121 179.543793,119.954941 
z"/>
<path fill="#CE77C1" opacity="1.000000" stroke="none" 
	d="
M255.927338,329.012268 
	C255.684326,328.551239 255.441315,328.090179 255.412933,327.254303 
	C261.527039,323.669525 267.444916,320.492706 273.317810,317.234894 
	C276.002014,315.745880 278.528809,313.965424 281.246582,312.546173 
	C289.213654,308.385742 297.256073,304.369873 305.239960,300.241333 
	C313.148651,296.151703 321.022064,291.993835 329.260895,287.916077 
	C330.081726,287.988342 330.552582,288.010406 331.008057,288.018250 
	C330.992615,288.003998 330.959045,287.978760 330.932739,288.448181 
	C330.582001,314.088501 330.233215,339.259155 329.982697,364.430786 
	C329.964172,366.291962 330.652679,368.160156 331.012512,370.025085 
	C330.295105,370.344330 329.577667,370.663574 328.333923,370.687622 
	C323.709625,367.911377 319.662415,365.341522 315.505035,362.964386 
	C295.662170,351.618347 275.789459,340.324585 255.927338,329.012268 
z"/>
<path fill="#6C2B80" opacity="1.000000" stroke="none" 
	d="
M331.948303,203.198090 
	C331.516632,203.138687 331.084961,203.079285 330.298492,202.539871 
	C329.866852,175.323685 329.789978,148.587494 329.785767,121.532593 
	C329.956146,120.789810 330.053802,120.365730 330.151489,119.941650 
	C338.130646,124.316521 346.110077,128.690903 354.088928,133.066376 
	C361.270935,137.004883 368.490723,140.876480 375.624146,144.901199 
	C384.305725,149.799423 392.912018,154.831055 401.556793,159.794678 
	C403.028656,160.639771 404.530334,161.432983 405.605621,162.614319 
	C396.132538,167.827332 387.022034,172.585419 378.022675,177.545181 
	C362.627899,186.029633 347.302704,194.640381 331.948303,203.198090 
z"/>
<path fill="#E84278" opacity="1.000000" stroke="none" 
	d="
M329.968933,119.617203 
	C330.053802,120.365730 329.956146,120.789810 329.458191,121.638077 
	C316.208435,129.043137 303.362549,136.030594 290.508484,143.002945 
	C278.682922,149.417419 266.848572,155.815643 255.018112,162.221039 
	C255.009338,134.841660 255.000580,107.462273 254.988617,79.624977 
	C262.159058,82.836418 269.406830,86.368820 276.490387,90.204483 
	C290.026062,97.533859 303.459991,105.050873 316.953979,112.457535 
	C321.202179,114.789307 325.507324,117.017281 329.968933,119.617203 
z"/>
<path fill="#6C2B80" opacity="1.000000" stroke="none" 
	d="
M331.335114,369.885193 
	C330.652679,368.160156 329.964172,366.291962 329.982697,364.430786 
	C330.233215,339.259155 330.582001,314.088501 331.304596,288.342468 
	C333.955811,288.805420 336.283234,289.708618 338.450378,290.902679 
	C357.941803,301.642242 377.384705,312.470032 396.899048,323.167572 
	C399.749847,324.730316 402.901825,325.743683 405.914429,327.011261 
	C402.650391,329.466156 399.619781,332.343597 396.079956,334.299255 
	C383.937958,341.007385 371.557220,347.282227 359.384491,353.936279 
	C350.050720,359.038483 340.893494,364.463715 331.335114,369.885193 
z"/>
<path fill="#CE78C2" opacity="1.000000" stroke="none" 
	d="
M180.775696,286.856171 
	C178.344391,287.853699 175.789688,288.626495 173.500900,289.883484 
	C150.768982,302.367920 128.081009,314.932373 105.172363,327.750061 
	C104.642326,326.506439 104.043121,324.987457 104.040062,323.467316 
	C103.988037,297.643829 104.009979,271.820160 104.372284,245.516266 
	C105.113426,245.014725 105.497871,244.993469 106.125397,245.223450 
	C123.084579,254.742004 139.768753,264.067596 156.530685,273.251251 
	C164.533554,277.635956 172.684067,281.751129 180.813477,286.204956 
	C180.859222,286.421509 180.775696,286.856171 180.775696,286.856171 
z"/>
<path fill="#EA637D" opacity="1.000000" stroke="none" 
	d="
M105.882309,244.972214 
	C105.497871,244.993469 105.113426,245.014725 104.440842,245.057007 
	C104.162903,217.203445 104.173103,189.328888 104.588013,161.305237 
	C105.898987,162.052917 106.658630,163.216461 107.733185,163.807022 
	C129.413132,175.722015 151.141129,187.549591 172.816757,199.472382 
	C174.654205,200.483063 176.190216,202.041718 177.769913,203.967346 
	C162.202087,213.191116 146.708298,221.753571 131.267990,230.411377 
	C122.759682,235.182236 114.341255,240.113342 105.882309,244.972214 
z"/>
<path fill="#CE78C2" opacity="1.000000" stroke="none" 
	d="
M405.951813,326.540588 
	C402.901825,325.743683 399.749847,324.730316 396.899048,323.167572 
	C377.384705,312.470032 357.941803,301.642242 338.450378,290.902679 
	C336.283234,289.708618 333.955811,288.805420 331.330872,287.873047 
	C330.959045,287.978760 330.992615,288.003998 331.104797,287.744720 
	C331.082581,287.123047 330.948181,286.760681 330.813782,286.398285 
	C336.919373,282.792603 342.898804,278.949493 349.154572,275.626556 
	C366.716370,266.298096 384.386902,257.174164 402.036469,248.011765 
	C403.035431,247.493164 404.231262,247.353699 405.716064,247.058258 
	C406.060852,273.409119 406.025024,299.739532 405.951813,326.540588 
z"/>
<path fill="#E84278" opacity="1.000000" stroke="none" 
	d="
M255.696625,329.352203 
	C275.789459,340.324585 295.662170,351.618347 315.505035,362.964386 
	C319.662415,365.341522 323.709625,367.911377 327.999084,370.681396 
	C318.185638,376.432007 308.111816,381.771851 298.192902,387.385406 
	C285.121796,394.782867 272.174591,402.399109 259.166656,409.908386 
	C258.049927,410.553009 256.877167,411.100494 255.390472,411.730591 
	C255.033493,385.715363 255.009689,359.662598 255.019379,333.609833 
	C255.019867,332.303864 255.310425,330.998047 255.696625,329.352203 
z"/>
<path fill="#CE78C2" opacity="1.000000" stroke="none" 
	d="
M332.157837,203.457947 
	C347.302704,194.640381 362.627899,186.029633 378.022675,177.545181 
	C387.022034,172.585419 396.132538,167.827332 405.552765,162.985931 
	C405.946228,188.989822 405.979919,214.986282 406.044495,241.441971 
	C395.697754,236.741028 385.264404,231.689255 374.956543,226.393341 
	C361.969879,219.721100 349.081482,212.857437 336.163727,206.051544 
	C334.852417,205.360672 333.630646,204.499802 332.157837,203.457947 
z"/>
<path fill="#000000" opacity="1.000000" stroke="none" 
	d="
M180.855835,287.328644 
	C180.775696,286.856171 180.859222,286.421509 180.916473,285.746521 
	C180.927841,258.055695 180.881973,231.039825 180.898590,203.777466 
	C180.920837,203.366241 180.880615,203.201538 180.840378,203.036850 
	C180.896133,176.698349 180.951889,150.359863 181.029083,123.558617 
	C188.661224,127.216751 196.321548,131.249207 203.869125,135.482651 
	C211.887451,139.980103 219.759430,144.738419 227.774261,149.242310 
	C231.566589,151.373398 235.583084,153.101654 239.425613,155.148346 
	C244.072037,157.623215 248.641754,160.242096 253.708542,163.293961 
	C266.015930,170.267242 277.825562,176.808151 289.712036,183.206329 
	C302.747833,190.223175 315.854462,197.108368 328.930237,204.050949 
	C328.956909,231.056870 328.983582,258.062805 328.971527,285.839294 
	C328.925537,287.028564 328.918243,287.447235 328.910950,287.865906 
	C321.022064,291.993835 313.148651,296.151703 305.239960,300.241333 
	C297.256073,304.369873 289.213654,308.385742 281.246582,312.546173 
	C278.528809,313.965424 276.002014,315.745880 273.317810,317.234894 
	C267.444916,320.492706 261.527039,323.669525 255.292664,327.022736 
	C248.967743,330.263062 242.895401,333.212189 237.006439,336.490784 
	C227.472580,341.798645 218.101639,347.398682 208.579086,352.727356 
	C202.830154,355.944366 196.917252,358.867584 191.092758,361.950653 
	C187.979080,363.598816 184.896652,365.306061 181.446335,366.990540 
	C181.040359,340.596649 180.988174,314.198883 180.855835,287.328644 
z"/>
<path fill="#CE77C1" opacity="1.000000" stroke="none" 
	d="
M329.148010,203.918121 
	C315.854462,197.108368 302.747833,190.223175 289.712036,183.206329 
	C277.825562,176.808151 266.015930,170.267242 254.022644,163.462830 
	C254.158722,162.972153 254.430496,162.787216 254.853149,162.401306 
	C266.848572,155.815643 278.682922,149.417419 290.508484,143.002945 
	C303.362549,136.030594 316.208435,129.043137 329.385498,121.956787 
	C329.789978,148.587494 329.866852,175.323685 329.971924,202.527496 
	C329.788666,203.258514 329.577240,203.521896 329.148010,203.918121 
z"/>
<path fill="#6C2B80" opacity="1.000000" stroke="none" 
	d="
M329.260895,287.916077 
	C328.918243,287.447235 328.925537,287.028564 329.011169,286.306702 
	C329.470184,286.105255 329.850830,286.207001 330.522644,286.353516 
	C330.948181,286.760681 331.082581,287.123047 331.120239,287.758972 
	C330.552582,288.010406 330.081726,287.988342 329.260895,287.916077 
z"/>
<path fill="#FF83B0" opacity="1.000000" stroke="none" 
	d="
M180.836105,204.023972 
	C180.881973,231.039825 180.927841,258.055695 180.870728,285.529968 
	C172.684067,281.751129 164.533554,277.635956 156.530685,273.251251 
	C139.768753,264.067596 123.084579,254.742004 106.125397,245.223450 
	C114.341255,240.113342 122.759682,235.182236 131.267990,230.411377 
	C146.708298,221.753571 162.202087,213.191116 177.856232,204.298645 
	C178.469299,203.963791 178.899719,203.919189 179.864685,203.907898 
	C180.399246,203.941223 180.836105,204.023972 180.836105,204.023972 
z"/>
<path fill="#EA637D" opacity="1.000000" stroke="none" 
	d="
M180.898590,203.777466 
	C180.836105,204.023972 180.399246,203.941223 180.187653,203.871964 
	C180.125992,203.589554 180.305069,203.404648 180.676849,203.142426 
	C180.880615,203.201538 180.920837,203.366241 180.898590,203.777466 
z"/>
</svg>